<svg xmlns="http://www.w3.org/2000/svg" version="1.0" viewBox="0 0 165 283"><path d="M0 141.5V283h165V0H0v141.5zM130.6 37h2.4v30h-8.7c-36.7.1-62.2 24.1-62.3 58.6 0 25 14.1 46.7 36.6 56.2 2.9 1.2 11.3 3.2 18.8 4.4 15.8 2.5 16.7 2.9 14.2 5.6-2.3 2.6-6.4 3.1-15.6 2.1-25.2-3-44.1-16.1-55.3-38.5-6.4-12.7-8.7-33.5-5.2-46 3.7-13.1 13.5-25.8 29-38 4.1-3.2 7.1-6 6.5-6.2-2-.7-14.2 6.3-19.8 11.4-23.4 21.1-29.1 61.5-12.8 90.9 6 10.7 18 22.2 28.6 27.3 11.5 5.7 18.2 7.3 33.5 8l13 .7-.4 18c-.2 9.9-.6 18.2-.8 18.5-.3.3-6.4.5-13.6.4-10.5-.1-14.9-.5-21.7-2.4-18-4.9-32.8-13.5-46.1-26.9-26.4-26.4-37.2-62.8-28.4-96.4 7.8-30 29.8-56.3 58.1-69.3 13.2-6.1 30-9.7 41.8-8.8 3.2.2 7 .4 8.2.4zm2.2 82.4.2 35.9-10.3-.5c-8.3-.4-11.3-1-15.9-3.1-8-3.6-14.9-10.4-18.4-18-2.6-5.5-2.9-7.3-2.9-15.7 0-11 1.8-16 8.1-22.9 7.4-8.3 17.5-12.1 30.9-11.8l8 .2.3 35.9z"/></svg>